<svg width="83" height="72" viewBox="0 0 83 72" fill="none" xmlns="http://www.w3.org/2000/svg">
<path d="M0.269531 71.8601V61.4827H7.60655V63.5862H2.69576V65.5924H6.97277V67.5987H2.69576V69.7605H7.67653V71.864H0.269531V71.8601Z" fill="#EEA620"/>
<path d="M15.3625 72.0001C14.5032 72.0001 13.745 71.8484 13.0918 71.5452C12.4386 71.2419 11.8942 70.8336 11.4587 70.3243C11.0233 69.8149 10.6967 69.2434 10.475 68.6057C10.2534 67.972 10.1445 67.3187 10.1445 66.6578C10.1445 66.0046 10.2534 65.3591 10.475 64.7215C10.6928 64.0838 11.0233 63.5161 11.4587 63.0107C11.8942 62.5052 12.4386 62.1008 13.0918 61.7976C13.745 61.4943 14.5032 61.3427 15.3625 61.3427C16.1012 61.3427 16.7311 61.4321 17.2483 61.6148C17.7654 61.7976 18.2009 62.0347 18.5508 62.3302C18.9007 62.6257 19.1807 62.9329 19.3945 63.2556C19.6045 63.5783 19.76 63.8855 19.865 64.1732C19.9661 64.4648 20.0516 64.7953 20.1177 65.1686H17.7187C17.6137 64.8303 17.4854 64.5543 17.3338 64.3326C17.1783 64.1149 16.9489 63.9205 16.6378 63.7494C16.3268 63.5783 15.9146 63.4967 15.3897 63.4967C14.7831 63.4967 14.2738 63.6522 13.8694 63.9594C13.4612 64.2665 13.1579 64.6631 12.9596 65.1453C12.7574 65.6274 12.6563 66.129 12.6563 66.6539C12.6563 67.1788 12.7574 67.6842 12.9596 68.1703C13.1618 68.6563 13.465 69.0529 13.8694 69.3639C14.2777 69.6711 14.7831 69.8266 15.3897 69.8266C15.9146 69.8266 16.3306 69.7411 16.6378 69.5739C16.945 69.4067 17.1783 69.2123 17.3338 68.9984C17.4893 68.7846 17.6176 68.5085 17.7187 68.1703H20.1177C20.0516 68.5357 19.97 68.8662 19.865 69.1578C19.7639 69.4533 19.6045 69.7605 19.3945 70.0832C19.1846 70.4059 18.9046 70.7131 18.5508 71.0086C18.2009 71.3041 17.7654 71.5413 17.2483 71.724C16.7272 71.9068 16.1012 72.0001 15.3625 72.0001Z" fill="#EEA620"/>
<path d="M27.8336 72.0001C26.9432 72.0001 26.1695 71.8484 25.5046 71.5452C24.8397 71.2419 24.2876 70.8336 23.8444 70.3243C23.4011 69.8149 23.0667 69.2434 22.8412 68.6057C22.6157 67.972 22.5029 67.3187 22.5029 66.6578C22.5029 65.9929 22.6157 65.3475 22.8412 64.7137C23.0667 64.0838 23.4011 63.5161 23.8444 63.0107C24.2876 62.5052 24.8436 62.1008 25.5046 61.7976C26.1695 61.4943 26.9432 61.3427 27.8336 61.3427C28.7124 61.3427 29.4822 61.4943 30.1471 61.7976C30.812 62.1008 31.3641 62.5052 31.8113 63.0107C32.2545 63.5161 32.5889 64.0838 32.8144 64.7137C33.0399 65.3436 33.1527 65.9929 33.1527 66.6578C33.1527 67.3226 33.0399 67.972 32.8144 68.6057C32.5889 69.2434 32.2545 69.8149 31.8113 70.3243C31.368 70.8336 30.812 71.2419 30.1471 71.5452C29.4822 71.8484 28.7124 72.0001 27.8336 72.0001ZM27.8336 69.8266C28.4402 69.8266 28.9534 69.6711 29.3695 69.3639C29.7855 69.0568 30.1005 68.6602 30.3104 68.178C30.5204 67.6959 30.6254 67.1904 30.6254 66.6578C30.6254 66.1329 30.5204 65.6313 30.3104 65.1492C30.1005 64.667 29.7855 64.2743 29.3695 63.9633C28.9534 63.6522 28.4402 63.5006 27.8336 63.5006C27.2154 63.5006 26.6983 63.6561 26.2823 63.9633C25.8662 64.2704 25.5552 64.667 25.3491 65.1492C25.143 65.6313 25.0419 66.1329 25.0419 66.6578C25.0419 67.1904 25.143 67.6998 25.3491 68.178C25.5552 68.6602 25.8662 69.0529 26.2823 69.3639C26.6983 69.675 27.2154 69.8266 27.8336 69.8266Z" fill="#EEA620"/>
<path d="M39.9482 72.0001C39.2484 72.0001 38.6496 71.9184 38.1597 71.7551C37.6698 71.5918 37.2615 71.378 36.9388 71.1175C36.6161 70.857 36.3594 70.5809 36.1689 70.2893C35.9784 69.9977 35.8384 69.7216 35.749 69.4611C35.6596 69.2006 35.5896 68.9051 35.5312 68.5785H37.9847C38.0586 68.8701 38.1636 69.1073 38.2996 69.2939C38.4357 69.4806 38.6418 69.6478 38.9179 69.7916C39.1939 69.9355 39.5672 70.0094 40.0338 70.0094C40.6131 70.0094 41.033 69.8927 41.2897 69.6594C41.5463 69.4261 41.6746 69.1578 41.6746 68.8585C41.6746 68.5863 41.5774 68.3724 41.3869 68.213C41.1963 68.0536 40.8853 67.9331 40.4537 67.8475L39.0656 67.6104C38.4863 67.5093 37.9419 67.346 37.4326 67.1204C36.9232 66.8949 36.5111 66.58 36.2 66.1679C35.8851 65.7557 35.7295 65.223 35.7295 64.5698C35.7295 63.9244 35.8929 63.3606 36.2117 62.8785C36.5344 62.3963 36.9932 62.0192 37.592 61.7509C38.1908 61.4787 38.8984 61.3427 39.7111 61.3427C40.3448 61.3427 40.8892 61.4204 41.3363 61.5759C41.7835 61.7315 42.1606 61.9259 42.46 62.1631C42.7594 62.4002 43.0005 62.653 43.1832 62.9212C43.366 63.1895 43.502 63.4423 43.5915 63.6872C43.6809 63.9322 43.7548 64.2004 43.8092 64.4998H41.4102C41.3441 64.2665 41.2547 64.0721 41.138 63.9166C41.0214 63.7611 40.8464 63.625 40.6131 63.5045C40.3798 63.3839 40.061 63.3217 39.6605 63.3217C39.1006 63.3217 38.704 63.4423 38.4668 63.6794C38.2335 63.9166 38.1169 64.1693 38.1169 64.4298C38.1169 64.7215 38.2452 64.9392 38.5018 65.0908C38.7584 65.2386 39.0851 65.3513 39.4778 65.4291L40.9514 65.6818C41.5229 65.7829 42.044 65.9579 42.5222 66.199C43.0005 66.4439 43.3815 66.7705 43.6731 67.1827C43.9647 67.5948 44.1086 68.1042 44.1086 68.7107C44.1086 69.3367 43.9453 69.9005 43.6265 70.4021C43.3037 70.9036 42.8333 71.2963 42.215 71.5802C41.589 71.8562 40.8386 72.0001 39.9482 72.0001Z" fill="#EEA620"/>
<path d="M48.5488 71.8601L46.0254 61.4827H48.4361L50.1624 68.7341L51.9704 61.4827H54.4667L56.2747 68.7341L58.001 61.4827H60.4156L57.8922 71.8601H54.7349L53.2185 65.7013L51.7022 71.8601H48.5488Z" fill="#EEA620"/>
<path d="M61.4658 71.8602L64.9574 61.4827H68.2118L71.7034 71.8602H69.1644L68.5618 69.9667H64.6075L64.0048 71.8602H61.4658ZM65.2801 67.8904H67.9047L66.5866 63.8078L65.2801 67.8904Z" fill="#EEA620"/>
<path d="M74.3545 71.8602V61.4827H78.8298C79.7008 61.4827 80.424 61.6499 81.0033 61.9882C81.5826 62.3265 82.0142 62.758 82.302 63.2946C82.5858 63.8273 82.7297 64.3833 82.7297 64.9626C82.7297 65.5497 82.5858 66.1135 82.302 66.6462C82.0181 67.1789 81.5826 67.6182 81.0033 67.9565C80.424 68.2987 79.6969 68.4697 78.8298 68.4697H76.7807V71.8641H74.3545V71.8602ZM78.8181 63.5979H76.7846V66.3624H78.8181C79.3119 66.3624 79.6813 66.2185 79.9263 65.9269C80.1712 65.6353 80.2918 65.3203 80.2918 64.9743C80.2918 64.6282 80.1712 64.3133 79.9263 64.0256C79.6813 63.7417 79.3119 63.5979 78.8181 63.5979Z" fill="#EEA620"/>
<path d="M33.2713 0L8.63184 24.6392L33.2713 49.2785H40.7405L16.101 24.6392L40.7405 0H33.2713Z" fill="#52C6D8"/>
<path d="M49.727 6.10352e-05H42.2578L56.8619 14.604V7.13482L49.727 6.10352e-05Z" fill="#52C6D8"/>
<path d="M38.8902 32.575L31.4443 32.5555L48.9256 15.0705H56.3948L38.8902 32.575Z" fill="#52C6D8"/>
<path d="M66.8973 24.6393L42.2578 49.2786H49.727L74.3665 24.6393H66.8973Z" fill="#52C6D8"/>
</svg>
